<svg xmlns="http://www.w3.org/2000/svg" viewBox="0 0 128 128" role="img" aria-labelledby="title desc">
  <title id="title">Burnt-Out Rogue</title>
  <desc id="desc">A tired rogue fishing token with a hood, mask, and hidden hook.</desc>
  <defs>
    <linearGradient id="bg" x1="18" y1="14" x2="112" y2="116" gradientUnits="userSpaceOnUse">
      <stop stop-color="#5f4b39"/>
      <stop offset="1" stop-color="#183b3f"/>
    </linearGradient>
  </defs>
  <circle cx="64" cy="64" r="59" fill="url(#bg)"/>
  <circle cx="64" cy="64" r="53" fill="none" stroke="#f4ddad" stroke-width="6"/>
  <path d="M31 70c6-28 19-45 35-45 15 0 27 17 32 45-19-8-41-8-67 0z" fill="#2b2b2d"/>
  <path d="M39 68c1-18 11-30 27-30 15 0 24 12 25 30 1 20-9 34-26 34-16 0-27-14-26-34z" fill="#b87955"/>
  <path d="M38 66c18-9 36-9 54 0v15c-17 6-35 6-54 0z" fill="#232125"/>
  <path d="M51 74c6 3 12 3 18 0m10 0c5 3 10 3 15 0" fill="none" stroke="#f4ddad" stroke-width="4" stroke-linecap="round"/>
  <path d="M54 92c8 5 18 5 26 0" fill="none" stroke="#2a1c17" stroke-width="5" stroke-linecap="round"/>
  <path d="M96 88c10-3 15-10 13-20" fill="none" stroke="#f4ddad" stroke-width="5" stroke-linecap="round"/>
  <path d="M109 68c-8 1-10-5-5-10" fill="none" stroke="#f4ddad" stroke-width="4" stroke-linecap="round"/>
</svg>
