<svg xmlns="http://www.w3.org/2000/svg" viewBox="0 0 128 128" role="img" aria-labelledby="title desc">
  <title id="title">Drunken Monk</title>
  <desc id="desc">A round fishing monk token with a cup, hood, and fishing line.</desc>
  <defs>
    <linearGradient id="bg" x1="18" y1="12" x2="112" y2="118" gradientUnits="userSpaceOnUse">
      <stop stop-color="#b46e35"/>
      <stop offset="1" stop-color="#25392f"/>
    </linearGradient>
  </defs>
  <circle cx="64" cy="64" r="59" fill="url(#bg)"/>
  <circle cx="64" cy="64" r="53" fill="none" stroke="#f4ddad" stroke-width="6"/>
  <path d="M35 58c5-22 18-33 31-33 15 0 28 15 31 36-10-6-20-9-31-9-12 0-22 2-31 6z" fill="#3d2b22"/>
  <path d="M38 63c3-18 14-31 28-31 15 0 25 14 27 31 2 21-10 39-27 39-18 0-31-17-28-39z" fill="#d79a63"/>
  <path d="M45 88c8 10 34 10 42-1-3 18-11 26-22 26-10 0-18-8-20-25z" fill="#35241d"/>
  <path d="M50 66c7 4 13 4 18 0m10 0c5 4 11 4 18 0" fill="none" stroke="#2a1d18" stroke-width="5" stroke-linecap="round"/>
  <path d="M59 77c3 4 8 4 11 0" fill="none" stroke="#2a1d18" stroke-width="4" stroke-linecap="round"/>
  <path d="M27 82h20v11c0 8-20 8-20 0z" fill="#f4ddad" stroke="#35241d" stroke-width="4"/>
  <path d="M95 31c14 6 20 18 17 34-2 13-11 22-26 27" fill="none" stroke="#f4ddad" stroke-width="5" stroke-linecap="round"/>
  <path d="M86 92c8 4 15 2 20-5" fill="none" stroke="#f4ddad" stroke-width="5" stroke-linecap="round"/>
</svg>
