<svg xmlns="http://www.w3.org/2000/svg" viewBox="0 0 128 128" role="img" aria-labelledby="title desc">
  <title id="title">Retired Warrior</title>
  <desc id="desc">A scarred retired warrior token with a fishing spear and old helmet.</desc>
  <defs>
    <linearGradient id="bg" x1="16" y1="14" x2="112" y2="116" gradientUnits="userSpaceOnUse">
      <stop stop-color="#81533a"/>
      <stop offset="1" stop-color="#1f3941"/>
    </linearGradient>
  </defs>
  <circle cx="64" cy="64" r="59" fill="url(#bg)"/>
  <circle cx="64" cy="64" r="53" fill="none" stroke="#f4ddad" stroke-width="6"/>
  <path d="M33 57c5-22 18-34 33-34 14 0 25 12 30 33H33z" fill="#5f6665"/>
  <path d="M29 60h72v11H29z" fill="#323936"/>
  <path d="M39 66c1-15 11-27 27-27 15 0 25 12 25 27 0 21-11 38-26 38-16 0-27-17-26-38z" fill="#c9875c"/>
  <path d="M47 75c8 2 14 1 18-3m13 3c5 2 10 1 15-3" fill="none" stroke="#2b211c" stroke-width="5" stroke-linecap="round"/>
  <path d="M64 48l-9 42" fill="none" stroke="#7b2d24" stroke-width="4" stroke-linecap="round"/>
  <path d="M54 94c8 6 18 6 26 0" fill="none" stroke="#2b211c" stroke-width="5" stroke-linecap="round"/>
  <path d="M102 27l-9 75" fill="none" stroke="#f4ddad" stroke-width="5" stroke-linecap="round"/>
  <path d="M91 34l13-8 8 13" fill="none" stroke="#f4ddad" stroke-width="5" stroke-linecap="round" stroke-linejoin="round"/>
</svg>
